<svg width="198" height="151" viewBox="0 0 198 151" fill="none" xmlns="http://www.w3.org/2000/svg">
<rect width="198" height="151" fill="#003B6F"/>
<path d="M97.5629 100.719C109.212 103.043 125.521 91.9535 97.5629 29L78.2814 64.8596L59 100.719H97.5629Z" stroke="white" stroke-width="3"/>
<path d="M124.563 100.719C136.212 103.043 152.521 91.9535 124.563 29L105.281 64.8596L86 100.719H124.563Z" stroke="white" stroke-width="3"/>
<path d="M99.0226 106.394C128.984 133.84 149.729 70.5395 192.006 106.691" stroke="white"/>
<path d="M39.0226 103.394C68.9836 130.84 89.7293 67.5395 132.006 103.691" stroke="white"/>
<path d="M6.02259 105.394C35.9836 132.84 56.7293 69.5395 99.0057 105.691" stroke="white"/>
<path d="M79.0226 104.394C108.984 131.84 129.729 68.5395 172.006 104.691" stroke="white"/>
<path d="M56.99 132.88C56.99 132.172 57.242 131.608 57.746 131.188C58.25 130.768 58.832 130.558 59.492 130.558C60.164 130.558 60.806 130.678 61.418 130.918C62.03 131.158 62.336 131.476 62.336 131.872C62.336 132.076 62.258 132.238 62.102 132.358C61.946 132.478 61.808 132.538 61.688 132.538C61.58 132.538 61.49 132.538 61.418 132.538C61.358 132.526 61.118 132.412 60.698 132.196C60.29 131.98 59.912 131.872 59.564 131.872C59.216 131.872 58.916 131.962 58.664 132.142C58.424 132.31 58.304 132.562 58.304 132.898C58.304 133.234 58.442 133.498 58.718 133.69C59.006 133.882 59.504 134.05 60.212 134.194C60.92 134.326 61.46 134.518 61.832 134.77C62.216 135.022 62.408 135.49 62.408 136.174C62.408 137.17 62.144 137.878 61.616 138.298C61.1 138.706 60.47 138.91 59.726 138.91C58.982 138.91 58.346 138.808 57.818 138.604C57.302 138.4 57.044 138.094 57.044 137.686C57.044 137.218 57.278 136.984 57.746 136.984C57.866 136.984 58.13 137.068 58.538 137.236C58.946 137.404 59.348 137.488 59.744 137.488C60.152 137.488 60.458 137.362 60.662 137.11C60.878 136.846 60.986 136.546 60.986 136.21C60.986 135.874 60.848 135.634 60.572 135.49C60.296 135.334 59.876 135.208 59.312 135.112C58.748 135.016 58.334 134.914 58.07 134.806C57.35 134.518 56.99 133.876 56.99 132.88ZM68.6318 130.594C69.1598 130.594 69.4238 131.044 69.4238 131.944C69.4238 132.04 69.4238 132.142 69.4238 132.25L69.3878 133.51C69.3758 133.906 69.3698 134.296 69.3698 134.68L69.6398 138.748C69.6398 139.048 69.3338 139.198 68.7218 139.198C68.6858 139.198 68.5958 139.198 68.4518 139.198C68.3198 139.198 68.2238 139.144 68.1638 139.036C68.1158 138.928 68.1098 138.796 68.1458 138.64C68.1938 138.484 68.1818 138.31 68.1098 138.118C67.5578 138.706 66.8258 139 65.9138 139C64.2218 139 63.3758 137.692 63.3758 135.076C63.3758 133.624 63.6458 132.526 64.1858 131.782C64.7378 131.038 65.5238 130.666 66.5438 130.666C67.0238 130.666 67.5038 130.75 67.9838 130.918C68.1398 130.702 68.3558 130.594 68.6318 130.594ZM66.7598 132.232C66.0758 132.232 65.5658 132.43 65.2298 132.826C64.8938 133.222 64.7258 133.948 64.7258 135.004C64.7258 136.78 65.2058 137.668 66.1658 137.668C66.4178 137.668 66.6938 137.554 66.9938 137.326C67.3058 137.098 67.5218 136.84 67.6418 136.552C67.8698 135.904 67.9838 135.196 67.9838 134.428C67.9838 133.66 67.8878 133.102 67.6958 132.754C67.5158 132.406 67.2038 132.232 66.7598 132.232ZM71.3426 138.442L71.1446 131.134C71.1446 130.906 71.2226 130.72 71.3786 130.576C71.5346 130.432 71.6906 130.36 71.8466 130.36C72.2306 130.36 72.4526 130.522 72.5126 130.846C72.5606 131.17 72.5846 131.506 72.5846 131.854C73.2326 131.002 74.0426 130.576 75.0146 130.576C76.5026 130.576 77.2466 132.274 77.2466 135.67C77.2466 135.982 77.2466 136.456 77.2466 137.092C77.2466 137.716 77.2106 138.172 77.1386 138.46C77.0546 138.82 76.7966 139 76.3646 139C76.0766 139 75.9326 138.808 75.9326 138.424L75.9506 137.416C75.9506 136.024 75.9026 135.076 75.8066 134.572C75.7226 134.056 75.6386 133.648 75.5546 133.348C75.3506 132.7 75.0206 132.376 74.5646 132.376C73.9646 132.376 73.5446 132.592 73.3046 133.024C73.0406 133.492 72.8846 134.044 72.8366 134.68C72.7526 135.796 72.7106 136.978 72.7106 138.226C72.7106 138.466 72.6206 138.658 72.4406 138.802C72.2606 138.946 72.0446 139.018 71.7926 139.018C71.4926 139.018 71.3426 138.826 71.3426 138.442ZM80.8493 135.454L79.3553 135.49C79.1873 135.49 79.0433 135.43 78.9233 135.31C78.8153 135.19 78.7613 135.022 78.7613 134.806C78.7613 134.578 78.8333 134.392 78.9773 134.248C79.1213 134.104 79.3253 134.032 79.5893 134.032H80.5613H83.1713C83.5433 134.032 83.8433 134.032 84.0713 134.032C84.5153 134.056 84.7373 134.284 84.7373 134.716C84.7373 134.92 84.6653 135.1 84.5213 135.256C84.3893 135.4 84.1913 135.472 83.9273 135.472L80.8493 135.454ZM87.5686 138.982C87.1606 138.982 86.7646 138.19 86.3806 136.606C86.0086 135.01 85.8226 133.222 85.8226 131.242C85.8226 131.038 85.9066 130.882 86.0746 130.774C86.2546 130.654 86.4166 130.594 86.5606 130.594C86.7046 130.594 86.8186 130.642 86.9026 130.738C86.9986 130.822 87.0466 130.936 87.0466 131.08C87.0466 132.952 87.3646 134.752 88.0006 136.48C88.0966 136.336 88.2466 136.048 88.4506 135.616C88.6546 135.172 88.8466 134.848 89.0266 134.644C89.2066 134.44 89.4226 134.338 89.6746 134.338C89.9266 134.338 90.1906 134.524 90.4666 134.896C90.7426 135.268 90.9766 135.67 91.1686 136.102C91.3726 136.522 91.4866 136.744 91.5106 136.768C91.8346 135.76 91.9966 134.824 91.9966 133.96L91.8886 131.224C91.8766 131.044 91.9606 130.894 92.1406 130.774C92.3206 130.642 92.4946 130.576 92.6626 130.576C93.0106 130.576 93.1846 131.254 93.1846 132.61V133.6C93.1846 135.208 92.9386 136.642 92.4466 137.902C92.1826 138.622 91.8526 138.982 91.4566 138.982C91.2286 138.982 91.0186 138.838 90.8266 138.55C90.6346 138.25 90.4186 137.83 90.1786 137.29C89.9386 136.75 89.7526 136.378 89.6206 136.174L89.0806 137.236C88.8766 137.656 88.7206 137.962 88.6126 138.154C88.5046 138.334 88.3546 138.52 88.1626 138.712C87.9706 138.892 87.7726 138.982 87.5686 138.982ZM97.5927 130.612C98.4567 130.612 99.1647 131.026 99.7167 131.854C100.281 132.682 100.563 133.678 100.563 134.842C100.563 135.994 100.275 136.978 99.6987 137.794C99.1347 138.61 98.3787 139.018 97.4307 139.018C96.4947 139.018 95.7387 138.604 95.1627 137.776C94.5867 136.936 94.2987 136.006 94.2987 134.986C94.2987 133.678 94.5627 132.634 95.0907 131.854C95.6547 131.026 96.4887 130.612 97.5927 130.612ZM97.3767 132.088C96.8727 132.088 96.4587 132.352 96.1347 132.88C95.8107 133.408 95.6487 133.966 95.6487 134.554C95.6487 135.466 95.8287 136.162 96.1887 136.642C96.5487 137.122 96.9567 137.362 97.4127 137.362C98.2287 137.362 98.7507 137.008 98.9787 136.3C99.0747 135.964 99.1227 135.544 99.1227 135.04C99.1227 133.072 98.5407 132.088 97.3767 132.088ZM103.718 135.454L102.224 135.49C102.056 135.49 101.912 135.43 101.792 135.31C101.684 135.19 101.63 135.022 101.63 134.806C101.63 134.578 101.702 134.392 101.846 134.248C101.99 134.104 102.194 134.032 102.458 134.032H103.43H106.04C106.412 134.032 106.712 134.032 106.94 134.032C107.384 134.056 107.606 134.284 107.606 134.716C107.606 134.92 107.534 135.1 107.39 135.256C107.258 135.4 107.06 135.472 106.796 135.472L103.718 135.454ZM108.692 134.788C108.692 133.984 108.902 133.252 109.322 132.592C109.754 131.932 110.3 131.44 110.96 131.116C111.62 130.78 112.262 130.612 112.886 130.612C113.51 130.612 114.008 130.69 114.38 130.846C114.764 130.99 114.956 131.188 114.956 131.44C114.956 131.68 114.884 131.926 114.74 132.178C114.608 132.418 114.428 132.538 114.2 132.538C114.116 132.538 113.882 132.472 113.498 132.34C113.126 132.196 112.886 132.124 112.778 132.124C112.082 132.124 111.488 132.382 110.996 132.898C110.504 133.402 110.258 134.074 110.258 134.914C110.258 135.754 110.39 136.384 110.654 136.804C110.93 137.212 111.398 137.416 112.058 137.416C112.322 137.416 112.772 137.266 113.408 136.966C114.056 136.654 114.458 136.498 114.614 136.498C114.77 136.498 114.896 136.546 114.992 136.642C115.088 136.738 115.136 136.858 115.136 137.002C115.136 137.29 114.95 137.596 114.578 137.92C114.218 138.232 113.768 138.496 113.228 138.712C112.688 138.916 112.202 139.018 111.77 139.018C110.81 139.018 110.054 138.64 109.502 137.884C108.962 137.128 108.692 136.096 108.692 134.788ZM120.944 130.594C121.472 130.594 121.736 131.044 121.736 131.944C121.736 132.04 121.736 132.142 121.736 132.25L121.7 133.51C121.688 133.906 121.682 134.296 121.682 134.68L121.952 138.748C121.952 139.048 121.646 139.198 121.034 139.198C120.998 139.198 120.908 139.198 120.764 139.198C120.632 139.198 120.536 139.144 120.476 139.036C120.428 138.928 120.422 138.796 120.458 138.64C120.506 138.484 120.494 138.31 120.422 138.118C119.87 138.706 119.138 139 118.226 139C116.534 139 115.688 137.692 115.688 135.076C115.688 133.624 115.958 132.526 116.498 131.782C117.05 131.038 117.836 130.666 118.856 130.666C119.336 130.666 119.816 130.75 120.296 130.918C120.452 130.702 120.668 130.594 120.944 130.594ZM119.072 132.232C118.388 132.232 117.878 132.43 117.542 132.826C117.206 133.222 117.038 133.948 117.038 135.004C117.038 136.78 117.518 137.668 118.478 137.668C118.73 137.668 119.006 137.554 119.306 137.326C119.618 137.098 119.834 136.84 119.954 136.552C120.182 135.904 120.296 135.196 120.296 134.428C120.296 133.66 120.2 133.102 120.008 132.754C119.828 132.406 119.516 132.232 119.072 132.232ZM123.655 138.442L123.457 131.134C123.457 130.906 123.535 130.72 123.691 130.576C123.847 130.432 124.003 130.36 124.159 130.36C124.543 130.36 124.765 130.522 124.825 130.846C124.873 131.17 124.897 131.506 124.897 131.854C125.545 131.002 126.355 130.576 127.327 130.576C128.815 130.576 129.559 132.274 129.559 135.67C129.559 135.982 129.559 136.456 129.559 137.092C129.559 137.716 129.523 138.172 129.451 138.46C129.367 138.82 129.109 139 128.677 139C128.389 139 128.245 138.808 128.245 138.424L128.263 137.416C128.263 136.024 128.215 135.076 128.119 134.572C128.035 134.056 127.951 133.648 127.867 133.348C127.663 132.7 127.333 132.376 126.877 132.376C126.277 132.376 125.857 132.592 125.617 133.024C125.353 133.492 125.197 134.044 125.149 134.68C125.065 135.796 125.023 136.978 125.023 138.226C125.023 138.466 124.933 138.658 124.753 138.802C124.573 138.946 124.357 139.018 124.105 139.018C123.805 139.018 123.655 138.826 123.655 138.442ZM134.296 130.612C135.16 130.612 135.868 131.026 136.42 131.854C136.984 132.682 137.266 133.678 137.266 134.842C137.266 135.994 136.978 136.978 136.402 137.794C135.838 138.61 135.082 139.018 134.134 139.018C133.198 139.018 132.442 138.604 131.866 137.776C131.29 136.936 131.002 136.006 131.002 134.986C131.002 133.678 131.266 132.634 131.794 131.854C132.358 131.026 133.192 130.612 134.296 130.612ZM134.08 132.088C133.576 132.088 133.162 132.352 132.838 132.88C132.514 133.408 132.352 133.966 132.352 134.554C132.352 135.466 132.532 136.162 132.892 136.642C133.252 137.122 133.66 137.362 134.116 137.362C134.932 137.362 135.454 137.008 135.682 136.3C135.778 135.964 135.826 135.544 135.826 135.04C135.826 133.072 135.244 132.088 134.08 132.088ZM140.962 130.666C141.598 130.666 142.204 130.852 142.78 131.224C143.356 131.596 143.644 132.058 143.644 132.61C143.644 133.15 143.41 133.678 142.942 134.194C142.474 134.698 141.85 135.004 141.07 135.112C140.734 135.16 140.23 135.184 139.558 135.184C139.69 136.204 139.948 136.876 140.332 137.2C140.452 137.332 140.614 137.398 140.818 137.398C141.562 137.398 142.186 137.164 142.69 136.696C143.194 136.216 143.554 135.976 143.77 135.976C143.866 135.976 144.01 136.066 144.202 136.246C144.394 136.426 144.49 136.594 144.49 136.75C144.49 137.062 144.112 137.512 143.356 138.1C143.02 138.376 142.612 138.61 142.132 138.802C141.664 138.982 141.226 139.072 140.818 139.072C139.774 139.072 139.006 138.4 138.514 137.056C138.202 136.228 138.046 135.316 138.046 134.32C138.046 133.324 138.28 132.466 138.748 131.746C139.216 131.026 139.954 130.666 140.962 130.666ZM141.052 131.908C140.596 131.908 140.206 132.166 139.882 132.682C139.762 132.862 139.648 133.27 139.54 133.906C141.22 133.906 142.06 133.492 142.06 132.664C142.06 132.16 141.724 131.908 141.052 131.908Z" fill="white"/>
</svg>
